<svg width="24" height="24" viewBox="0 0 24 24" fill="none" xmlns="http://www.w3.org/2000/svg">
<path d="M12 8.15797C18.3806 8.15797 22.2857 10.6457 22.2857 12C22.2857 13.3543 18.3806 15.842 12 15.842C5.61943 15.842 1.71429 13.3543 1.71429 12C1.71429 10.6457 5.61943 8.15797 12 8.15797ZM12 6.23696C5.37257 6.23696 0 8.81688 0 12C0 15.1831 5.37257 17.763 12 17.763C18.6274 17.763 24 15.1831 24 12C24 8.81688 18.6274 6.23696 12 6.23696Z" fill="#00BCD4"/>
<path d="M12 10.079C11.6609 10.079 11.3295 10.1917 11.0476 10.4027C10.7657 10.6138 10.546 10.9138 10.4162 11.2649C10.2865 11.6159 10.2525 12.0021 10.3187 12.3748C10.3848 12.7474 10.5481 13.0897 10.7878 13.3584C11.0276 13.627 11.333 13.81 11.6656 13.8841C11.9981 13.9582 12.3428 13.9202 12.656 13.7748C12.9693 13.6294 13.237 13.3832 13.4254 13.0673C13.6137 12.7513 13.7143 12.3799 13.7143 12C13.7143 11.4905 13.5337 11.0019 13.2122 10.6416C12.8907 10.2814 12.4547 10.079 12 10.079Z" fill="#00BCD4"/>
<path d="M7.24971 1.92141C8.97857 1.92141 12.3386 4.97294 14.9691 10.079C18.1594 16.2714 18.1894 21.3044 17.1429 21.9816C17.0221 22.0517 16.887 22.0849 16.7511 22.0776C15.0223 22.0776 11.6614 19.0271 9.03086 13.921C5.84057 7.72863 5.81057 2.69557 6.85714 2.01842C6.97813 1.9481 7.11358 1.914 7.24971 1.92141ZM7.24886 0.00135386C6.81202 -0.00750362 6.38097 0.114168 6 0.35386C3.54 1.94542 4.23257 8.44997 7.54629 14.8815C10.3611 20.3468 14.1634 23.9996 16.752 23.9996C17.1887 24.0077 17.6195 23.8854 18 23.6452C20.46 22.0546 19.7674 15.55 16.4537 9.11848C13.6389 3.6532 9.83743 0.00135386 7.24886 0.00135386Z" fill="#00BCD4"/>
<path d="M16.7511 1.92141C16.887 1.91417 17.0221 1.94731 17.1429 2.01746C18.1894 2.69557 18.1594 7.72863 14.9691 13.921C12.3377 19.0271 8.97771 22.0786 7.24886 22.0786C7.11301 22.0858 6.97788 22.0527 6.85714 21.9825C5.81057 21.3035 5.84057 16.2704 9.03086 10.079C11.6623 4.97293 15.0223 1.92141 16.7511 1.92141ZM16.7511 0.000393314C14.1626 0.000393314 10.3611 3.65416 7.54543 9.11848C4.23343 15.55 3.54 22.0546 6 23.6452C6.3808 23.8855 6.81187 24.0079 7.24886 23.9996C9.83743 23.9996 13.6389 20.3458 16.4546 14.8815C19.7666 8.44997 20.46 1.94542 18 0.35482C17.6192 0.114459 17.1881 -0.00787858 16.7511 0.000393314Z" fill="#00BCD4"/>
</svg>
