<svg width="24" height="24" viewBox="0 0 24 24" fill="none" xmlns="http://www.w3.org/2000/svg">
<path d="M2.18407 21.6007L0 0H24L21.8138 21.5975L11.9854 24L2.18407 21.6007Z" fill="#1572B6"/>
<path d="M12.0002 22.1637L19.9421 20.2222L21.8105 1.76604H12.0002V22.1637Z" fill="#33A9DC"/>
<path d="M12.0002 9.59199H15.976L16.2506 6.87914H12.0002V4.22989H19.5343L18.7236 12.2413H12.0002V9.59199Z" fill="white"/>
<path d="M12.018 16.4723L12.0048 16.4757L8.65873 15.6791L8.44475 13.5662H5.42911L5.84989 17.7259L12.0043 19.2321L12.018 19.2286V16.4723Z" fill="#EBEBEB"/>
<path d="M15.7206 12.1292L15.3587 15.677L12.0076 16.4746V19.2309L18.1671 17.7258L18.7349 12.1292H15.7206Z" fill="white"/>
<path d="M12.0104 4.22989V6.87914H4.75308L4.48414 4.22989H12.0104ZM12.0002 9.59199V12.2413L8.69631 12.2416L8.49906 10.3032L8.42737 9.59238L12.0002 9.59199Z" fill="#EBEBEB"/>
</svg>
