<svg width="24" height="24" viewBox="0 0 24 24" fill="none" xmlns="http://www.w3.org/2000/svg">
<path d="M2.1842 21.6009L0 0H24L21.8129 21.5974L11.9854 24L2.1842 21.6009Z" fill="#E44F26"/>
<path d="M12 22.164L19.9417 20.2226L21.81 1.76657H12V22.164Z" fill="#F1662A"/>
<path d="M12 9.77743H8.0243L7.75018 7.06457H12V4.41514H4.46659L5.27631 12.4269H12V9.77743ZM12 16.6577L11.9864 16.6611L8.64058 15.8649L8.42673 13.752H5.41045L5.83135 17.9109L11.9864 19.4177L12 19.4143V16.6577Z" fill="#EBEBEB"/>
<path d="M11.9893 9.77743V12.4269H15.6889L15.3409 15.8631L11.9893 16.6603V19.4169L18.1492 17.9109L18.1939 17.4634L18.8996 10.4889L18.9735 9.77743H11.9893ZM11.9893 4.41514V7.06457H19.2467L19.5159 4.41514H11.9893Z" fill="white"/>
</svg>
