<svg width="16" height="16" viewBox="0 0 16 16" fill="none" xmlns="http://www.w3.org/2000/svg">
<path d="M12.25 0H3.75C1.67893 0 0 1.67893 0 3.75V12.25C0 14.3211 1.67893 16 3.75 16H12.25C14.3211 16 16 14.3211 16 12.25V3.75C16 1.67893 14.3211 0 12.25 0Z" fill="url(#paint0_linear_7_14)"/>
<path d="M4.95237 4.29625C4.32825 5.20987 4.406 6.39831 4.8815 7.36788L4.9165 7.43694L4.94012 7.48069C4.9445 7.48919 4.9495 7.49756 4.95406 7.50581C4.96231 7.52119 4.97056 7.53594 4.97769 7.55106L5.02319 7.63056L5.04913 7.67431L5.10194 7.75844L5.12556 7.79388C5.14919 7.83169 5.17588 7.86925 5.20213 7.90631L5.20425 7.90925C5.20837 7.91519 5.213 7.92106 5.21613 7.927C5.23875 7.95888 5.26331 7.99031 5.28694 8.0215L5.31319 8.0555L5.37756 8.13612L5.40212 8.16613C5.43142 8.20146 5.46135 8.23627 5.49194 8.27056L5.49381 8.27244C5.495 8.27394 5.49619 8.27481 5.49738 8.27631C5.52696 8.30977 5.55735 8.34246 5.58856 8.37438L5.61788 8.40438L5.69075 8.47719L5.7205 8.506C5.75329 8.53737 5.78656 8.56821 5.82031 8.5985L5.83925 8.615L5.92987 8.693L5.96737 8.7235L6.043 8.78256L6.08344 8.81388L6.199 8.89831C6.20194 8.90031 6.2045 8.90244 6.2075 8.90444C6.23462 8.92337 6.26219 8.94169 6.28981 8.96L6.3255 8.98419L6.4545 9.06456L6.49019 9.085L6.58706 9.14025C6.60475 9.14994 6.62287 9.15919 6.64056 9.16838L6.70981 9.20381L6.75412 9.22556L6.86394 9.27731L6.88725 9.28913C6.92962 9.30792 6.97231 9.32598 7.01531 9.34331L7.0465 9.35588L7.16731 9.40144L7.18244 9.40687C7.22707 9.42263 7.27197 9.43761 7.31712 9.45181L7.34962 9.46169C7.39687 9.47587 7.44119 9.49281 7.48869 9.50187C10.5068 10.0637 11.3837 7.65588 11.3837 7.65588C10.6474 8.63288 9.34044 8.89037 8.10219 8.60369C8.05525 8.59187 8.00975 8.57806 7.96394 8.56425L7.92944 8.55244C7.88487 8.53847 7.84053 8.52378 7.79644 8.50838L7.77812 8.50163C7.7388 8.48745 7.69969 8.47268 7.66081 8.45731L7.62775 8.44406C7.58518 8.427 7.54294 8.40913 7.50106 8.39044L7.47581 8.37912L7.369 8.32831L7.33831 8.31319C7.31056 8.29923 7.28297 8.28494 7.25556 8.27031L7.20044 8.24075C7.16709 8.22251 7.13408 8.20365 7.10144 8.18419L7.068 8.16525C7.02459 8.13915 6.98158 8.11238 6.939 8.08494C6.92719 8.07725 6.91581 8.06913 6.90413 8.06131L6.81231 7.99919L6.78281 7.97794L6.696 7.91412L6.65744 7.88456L6.57912 7.82219L6.54419 7.79388L6.44669 7.71119C6.44294 7.70791 6.43899 7.70487 6.43488 7.70206C6.40022 7.67093 6.36605 7.63926 6.33238 7.60706L6.3035 7.57875L6.22975 7.50525L6.201 7.47569C6.17028 7.4438 6.14015 7.41136 6.11062 7.37838C6.10919 7.37669 6.1075 7.37519 6.10612 7.37362C6.07487 7.33879 6.04431 7.30335 6.01444 7.26731L5.99044 7.23825L5.92431 7.15519L5.90006 7.1245L5.82387 7.02112C5.13637 6.066 4.89062 4.74875 5.43875 3.66687L4.95237 4.29625ZM6.88981 3.5265C6.43856 4.18806 6.463 5.07337 6.81506 5.773C6.87394 5.89046 6.94063 6.00384 7.01469 6.11237C7.08231 6.21106 7.15731 6.32863 7.24706 6.40775C7.27956 6.44319 7.31356 6.47862 7.34831 6.51481C7.35706 6.52387 7.36606 6.5325 7.375 6.54163C7.40875 6.57508 7.44325 6.60773 7.4785 6.63956L7.48275 6.64331C7.52247 6.67861 7.56309 6.7129 7.60456 6.74613L7.632 6.76781C7.67325 6.80031 7.71538 6.83167 7.75838 6.86188C7.7595 6.86283 7.76069 6.86375 7.76194 6.86462C7.78081 6.87794 7.80031 6.89056 7.81956 6.90331C7.82881 6.9095 7.8375 6.916 7.84675 6.92175C7.87758 6.94192 7.90881 6.96142 7.94044 6.98025L7.95369 6.98806L8.03638 7.03531C8.04606 7.04088 8.05594 7.04569 8.06588 7.05088L8.12494 7.08138C8.12794 7.08294 8.13088 7.08406 8.13369 7.0855C8.1735 7.10556 8.21356 7.1245 8.25456 7.14281C8.26331 7.14669 8.27225 7.15025 8.28125 7.154C8.31408 7.16827 8.34717 7.18194 8.3805 7.195L8.423 7.21088C8.45317 7.22204 8.4835 7.23279 8.514 7.24312L8.55506 7.25644C8.59844 7.27025 8.64131 7.2875 8.68656 7.29519C11.0168 7.68837 11.5549 5.861 11.5549 5.861C11.07 6.57219 10.1309 6.91175 9.12862 6.64687C9.0843 6.63506 9.04031 6.62205 8.99669 6.60787C8.98331 6.60375 8.97025 6.59938 8.957 6.59606C8.92605 6.58586 8.89529 6.57506 8.86475 6.56369L8.823 6.54787C8.78956 6.53606 8.7565 6.52131 8.72381 6.50712C8.71481 6.50319 8.70581 6.49969 8.697 6.49556C8.65589 6.47756 8.61531 6.45836 8.57531 6.438C8.55475 6.42775 8.53456 6.417 8.51431 6.40631L8.47913 6.38794C8.45315 6.37364 8.42744 6.35886 8.402 6.34363L8.38356 6.33181C8.35211 6.313 8.321 6.29362 8.29025 6.27369C8.28075 6.2675 8.27156 6.26187 8.26213 6.25456L8.20162 6.21381C8.1589 6.18356 8.1169 6.15228 8.07569 6.12L8.04731 6.09731C7.60869 5.74456 7.26087 5.26256 7.09562 4.71594C6.92231 4.14888 6.95975 3.51269 7.261 2.99631L6.88981 3.5265ZM8.51894 2.95144C8.25287 3.35025 8.22681 3.8455 8.41263 4.28594C8.60731 4.75337 9.00625 5.12019 9.47181 5.294C9.491 5.30131 9.51025 5.30775 9.53088 5.31444L9.55644 5.32269C9.58381 5.33144 9.61112 5.34156 9.63937 5.34706C10.9261 5.60019 11.2751 4.67456 11.3679 4.53831C11.0622 4.98669 10.5484 5.09431 9.91806 4.9385C9.86844 4.92606 9.8135 4.90775 9.76444 4.89056C9.70278 4.86818 9.64235 4.84259 9.58337 4.81388C9.47121 4.75881 9.36482 4.69267 9.26581 4.61644C8.7005 4.1805 8.35 3.34906 8.71813 2.67194M8.23894 10.7099H7.83962C7.82832 10.7104 7.81745 10.7144 7.80864 10.7215C7.79983 10.7286 7.79356 10.7384 7.79075 10.7494L7.50719 12.0616C7.50436 12.0725 7.4981 12.0822 7.48932 12.0893C7.48054 12.0964 7.46971 12.1004 7.45844 12.1009H7.17575C6.896 12.1009 6.92838 11.9075 6.98669 11.6425L6.9885 11.6345L7.02238 11.4538L7.037 11.3793L7.16606 10.7494C7.16729 10.7446 7.16737 10.7395 7.1663 10.7347C7.16523 10.7298 7.16304 10.7253 7.15991 10.7215C7.15677 10.7176 7.15278 10.7146 7.14824 10.7125C7.14371 10.7105 7.13877 10.7096 7.13381 10.7098H6.72388C6.71257 10.7102 6.70169 10.7142 6.6929 10.7214C6.68411 10.7285 6.67789 10.7383 6.67519 10.7493L6.4905 11.6251C6.38894 12.0887 6.41588 12.5308 6.96781 12.5446L6.98375 12.5449H7.84994C7.86124 12.5445 7.87209 12.5404 7.88088 12.5333C7.88968 12.5262 7.89594 12.5165 7.89875 12.5055L8.27206 10.7495C8.27681 10.7278 8.26244 10.7098 8.24037 10.7098L8.23894 10.7099ZM9.83225 12.1055C9.8545 12.1055 9.86769 12.1232 9.8645 12.1449L9.82575 12.3346L9.83225 12.1055Z" fill="white"/>
<path d="M8.76394 11.8614C8.76363 11.8406 8.78725 11.8049 8.80944 11.8049L8.75956 11.8041C8.73594 12.0302 8.76394 11.8614 8.76394 11.8614ZM9.83225 12.1055C9.8545 12.1055 9.86769 12.1232 9.8645 12.1449L9.81938 12.3654L9.83225 12.1055ZM3.21813 11.8661L3.28019 11.5911L3.20931 11.9054L3.201 11.9448L3.21813 11.8661ZM3.96075 10.7054H3.52213C3.51079 10.7059 3.49989 10.7099 3.49103 10.717C3.48216 10.7241 3.4758 10.7339 3.47288 10.7448L3.38969 11.111C3.38831 11.1157 3.38808 11.1207 3.38904 11.1256C3.39 11.1304 3.39211 11.135 3.39519 11.1388C3.39827 11.1427 3.40224 11.1458 3.40675 11.1478C3.41126 11.1498 3.41619 11.1507 3.42112 11.1504H3.86319C3.87449 11.15 3.88535 11.1459 3.89416 11.1388C3.90296 11.1317 3.90924 11.122 3.91206 11.111L3.99244 10.7439C3.99713 10.7224 3.98313 10.7054 3.96075 10.7054ZM2.59106 13.2882L2.95281 13.2911C2.846 13.2911 2.66981 13.2892 2.59106 13.2882Z" fill="white"/>
<path d="M3.83363 11.2766H3.39144C3.3801 11.2771 3.3692 11.2811 3.36034 11.2882C3.35148 11.2953 3.34512 11.305 3.34219 11.316L3.21813 11.8661L3.201 11.9448L3.08275 12.5064C3.07692 12.5327 3.06983 12.5586 3.0615 12.5841C3.0615 12.5841 2.97881 12.8298 2.84013 12.8271L2.7025 12.8245C2.69121 12.8248 2.68031 12.8287 2.67139 12.8356C2.66247 12.8426 2.65598 12.8521 2.65287 12.863L2.56131 13.2484C2.55988 13.2532 2.5596 13.2581 2.56049 13.263C2.56138 13.2678 2.56342 13.2724 2.56644 13.2763C2.56946 13.2802 2.57336 13.2833 2.57783 13.2854C2.5823 13.2874 2.5872 13.2884 2.59212 13.2882L2.954 13.2911C3.30088 13.2911 3.48362 13.0989 3.60087 12.546L3.86669 11.3174C3.87144 11.2958 3.857 11.2781 3.83481 11.2781L3.83363 11.2766ZM10.114 12.5452C10.0918 12.5452 10.0786 12.5275 10.0821 12.5057L10.4147 10.948L10.114 12.5452Z" fill="white"/>
<path d="M10.0869 12.5255C10.0843 12.5146 10.0858 12.488 10.0905 12.4664L10.2483 11.7269L10.0821 12.5057C10.0774 12.5275 10.0918 12.5452 10.114 12.5452H10.1543C10.1321 12.5452 10.0896 12.5363 10.0869 12.5255ZM10.5501 12.5363C10.538 12.5411 10.5099 12.5452 10.4877 12.5452H10.5281C10.5393 12.5448 10.5502 12.5407 10.5589 12.5335C10.5677 12.5264 10.5735 12.5166 10.5762 12.5056L10.5846 12.4662C10.5802 12.4879 10.5619 12.5315 10.5501 12.5363ZM11.9556 11.0523L11.9739 11.1279C11.9791 11.1496 11.965 11.1671 11.9429 11.1672M10.7028 11.8798L10.7191 11.8013L10.7826 11.5042L10.7109 11.8407L10.7028 11.8798ZM10.4201 10.9224L10.2483 11.7269L10.4147 10.948L10.4201 10.9224Z" fill="white"/>
<path d="M11.9739 11.1279L11.9556 11.0523L11.9286 10.9342C11.8927 10.7948 11.7873 10.7141 11.5584 10.7141L10.5046 10.7134C10.4933 10.7138 10.4824 10.7178 10.4736 10.7249C10.4649 10.7321 10.4586 10.7418 10.4559 10.7528L10.4396 10.83L10.416 10.9466L10.0918 12.465C10.0871 12.4868 10.0856 12.5122 10.0883 12.5241C10.0909 12.5359 10.1335 12.5438 10.1556 12.5438H10.4888C10.5109 12.5438 10.5389 12.5398 10.5511 12.5349C10.5633 12.5301 10.5811 12.4877 10.5866 12.4648L10.713 11.8393L10.8483 11.2056C10.8511 11.1947 10.8573 11.185 10.8661 11.1779C10.8749 11.1708 10.8857 11.1668 10.8969 11.1663L11.9451 11.1658C11.9672 11.1658 11.9813 11.1481 11.9762 11.1265L11.9739 11.1279ZM13.3236 10.4436L13.2429 10.4439H12.9074C12.8951 10.4447 12.8831 10.4481 12.8723 10.4538C12.8614 10.4595 12.8518 10.4675 12.8442 10.4772L12.1024 11.5641C12.0899 11.5824 12.0756 11.5797 12.0705 11.5582L12.0159 11.3187C12.0129 11.3077 12.0066 11.298 11.9977 11.2909C11.9888 11.2839 11.978 11.2798 11.9666 11.2794H11.4897C11.4675 11.2794 11.4543 11.2967 11.4604 11.3181L11.6731 12.0669C11.6792 12.0881 11.6796 12.1232 11.6742 12.1448L11.5798 12.5072C11.5781 12.5118 11.5777 12.5168 11.5785 12.5216C11.5793 12.5265 11.5813 12.5311 11.5843 12.5349C11.5874 12.5388 11.5913 12.5418 11.5958 12.5438C11.6003 12.5458 11.6052 12.5466 11.6101 12.5463H12.0826C12.094 12.5458 12.105 12.5418 12.114 12.5348C12.1231 12.5278 12.1297 12.5182 12.133 12.5072L12.2275 12.1449C12.2349 12.1194 12.2465 12.0953 12.2618 12.0736L13.4674 10.4749C13.4808 10.4571 13.4736 10.4428 13.4514 10.4429L13.325 10.4438L13.3236 10.4436ZM9.53419 11.3812C9.53137 11.4048 9.50919 11.4226 9.48694 11.4226H8.88206C8.86119 11.4226 8.85056 11.4084 8.85375 11.3906L8.85419 11.3874L8.85694 11.3772C8.916 11.2236 9.03238 11.1228 9.25338 11.1228C9.50231 11.1228 9.55106 11.2445 9.53419 11.3812ZM9.35675 10.6833C8.58062 10.6833 8.39669 11.1544 8.29356 11.6299C8.19031 12.1146 8.19925 12.5678 9.00237 12.5678L9.12981 12.5686L9.22775 12.5682L9.73856 12.5653C9.74978 12.5647 9.76077 12.5598 9.76944 12.5527C9.7781 12.5455 9.78435 12.5352 9.787 12.5243L9.8645 12.1449C9.869 12.1232 9.8545 12.1055 9.83225 12.1055L9.11019 12.1059C8.82313 12.1059 8.73775 12.0296 8.76912 11.8053H9.92338C9.93266 11.8052 9.94171 11.8023 9.94934 11.797C9.95696 11.7917 9.96281 11.7842 9.96612 11.7756C9.96746 11.7723 9.96841 11.769 9.96894 11.7655C10.1403 11.1193 10.0909 10.6833 9.35675 10.6833ZM5.68813 11.3786L5.67725 11.4176L5.50294 12.0351C5.4993 12.0459 5.49245 12.0555 5.48331 12.0624C5.47416 12.0693 5.46314 12.0733 5.45169 12.0738H4.99019C4.64025 12.0738 4.55506 11.8001 4.64025 11.3964C4.72531 10.9836 4.8925 10.7268 5.23688 10.7009C5.7075 10.6654 5.80156 10.9966 5.68813 11.3786ZM6.0045 12.0502C6.0045 12.0502 6.22188 11.5221 6.2715 11.217C6.33881 10.8086 6.1345 10.2164 5.34475 10.2164C4.55944 10.2164 4.2185 10.7817 4.0885 11.3977C3.9585 12.0167 4.12888 12.5598 4.9095 12.5555L6.101 12.5511C6.11243 12.5506 6.12342 12.5465 6.13246 12.5395C6.14149 12.5325 6.14814 12.5228 6.1515 12.5119L6.25187 12.1294C6.25347 12.1247 6.2539 12.1198 6.25314 12.115C6.25237 12.1101 6.25044 12.1055 6.2475 12.1016C6.24452 12.0977 6.2406 12.0946 6.2361 12.0926C6.2316 12.0906 6.22666 12.0897 6.22175 12.0901L6.02956 12.0889C6.01069 12.0888 6 12.0767 6.00212 12.0606C6.00259 12.0575 6.00339 12.0545 6.0045 12.0516V12.0502Z" fill="white"/>
<path d="M9.89169 11.6969C9.89169 11.7039 9.8889 11.7106 9.88393 11.7156C9.87897 11.7206 9.87224 11.7233 9.86522 11.7233C9.8582 11.7233 9.85147 11.7206 9.8465 11.7156C9.84154 11.7106 9.83875 11.7039 9.83875 11.6969C9.83875 11.6899 9.84154 11.6831 9.8465 11.6782C9.85147 11.6732 9.8582 11.6704 9.86522 11.6704C9.87224 11.6704 9.87897 11.6732 9.88393 11.6782C9.8889 11.6831 9.89169 11.6899 9.89169 11.6969Z" fill="white"/>
<defs>
<linearGradient id="paint0_linear_7_14" x1="0" y1="0" x2="16" y2="16" gradientUnits="userSpaceOnUse">
<stop stop-color="#FF5C00"/>
<stop offset="1" stop-color="#FF0F00"/>
</linearGradient>
</defs>
</svg>
