<svg width="24" height="24" viewBox="0 0 24 24" fill="none" xmlns="http://www.w3.org/2000/svg">
<path d="M0 0H24V24H0V0Z" fill="#F5DE19"/>
<path d="M16.122 18.75C16.3268 19.1651 16.6446 19.514 17.0388 19.7566C17.433 19.9992 17.8877 20.1257 18.3506 20.1214C19.2849 20.1214 19.8823 19.6543 19.8823 19.0071C19.8823 18.2357 19.2686 17.9597 18.24 17.5097L17.676 17.268C16.0474 16.5746 14.9674 15.7063 14.9674 13.8703C14.9674 12.1791 16.2531 10.8909 18.27 10.8909C18.9229 10.8438 19.5751 10.99 20.1455 11.3111C20.7159 11.6323 21.1791 12.1142 21.4774 12.6969L19.7143 13.824C19.5993 13.5351 19.3994 13.288 19.1408 13.1154C18.8823 12.9427 18.5774 12.8527 18.2666 12.8571C18.1309 12.8436 17.994 12.8584 17.8644 12.9007C17.7348 12.943 17.6154 13.0118 17.5139 13.1027C17.4124 13.1937 17.3309 13.3048 17.2747 13.429C17.2185 13.5532 17.1888 13.6877 17.1874 13.824C17.1874 14.5003 17.6066 14.7746 18.5743 15.1954L19.1383 15.4371C21.0549 16.2591 22.1383 17.0966 22.1383 18.9797C22.1383 21.0103 20.5431 22.1229 18.4011 22.1229C17.5666 22.1755 16.7347 21.9858 16.0055 21.5765C15.2763 21.1673 14.681 20.556 14.2911 19.8163L16.122 18.75ZM8.15486 18.9454C8.50886 19.5737 8.83114 20.1051 9.606 20.1051C10.3466 20.1051 10.8146 19.8154 10.8146 18.6883V11.0194H13.0697V18.7183C13.0697 21.0531 11.6983 22.116 9.702 22.116C8.99636 22.1546 8.29556 21.9787 7.69173 21.6116C7.0879 21.2444 6.6093 20.7031 6.31886 20.0589L8.15486 18.9454Z" fill="black"/>
</svg>
